<?xml version="1.0" encoding="UTF-8" standalone="no"?>
<!DOCTYPE svg PUBLIC "-//W3C//DTD SVG 1.1//EN"
 "http://www.w3.org/Graphics/SVG/1.1/DTD/svg11.dtd">
<!-- Generated by graphviz version 9.0.0 (20231125.0833)
 -->
<!-- Title: snakemake_dag Pages: 1 -->
<svg width="89pt" height="260pt"
 viewBox="0.00 0.00 88.50 260.00" xmlns="http://www.w3.org/2000/svg" xmlns:xlink="http://www.w3.org/1999/xlink">
<g id="graph0" class="graph" transform="scale(1 1) rotate(0) translate(4 256)">
<title>snakemake_dag</title>
<polygon fill="white" stroke="none" points="-4,4 -4,-256 84.5,-256 84.5,4 -4,4"/>
<!-- 0 -->
<g id="node1" class="node">
<title>0</title>
<path fill="none" stroke="#56d8d8" stroke-width="2" stroke-dasharray="5,2" d="M55.25,-36C55.25,-36 25.25,-36 25.25,-36 19.25,-36 13.25,-30 13.25,-24 13.25,-24 13.25,-12 13.25,-12 13.25,-6 19.25,0 25.25,0 25.25,0 55.25,0 55.25,0 61.25,0 67.25,-6 67.25,-12 67.25,-12 67.25,-24 67.25,-24 67.25,-30 61.25,-36 55.25,-36"/>
<text text-anchor="middle" x="40.25" y="-14.88" font-family="sans" font-size="10.00">all</text>
</g>
<!-- 1 -->
<g id="node2" class="node">
<title>1</title>
<path fill="none" stroke="#59d856" stroke-width="2" stroke-dasharray="5,2" d="M65.5,-108C65.5,-108 15,-108 15,-108 9,-108 3,-102 3,-96 3,-96 3,-84 3,-84 3,-78 9,-72 15,-72 15,-72 65.5,-72 65.5,-72 71.5,-72 77.5,-78 77.5,-84 77.5,-84 77.5,-96 77.5,-96 77.5,-102 71.5,-108 65.5,-108"/>
<text text-anchor="middle" x="40.25" y="-86.88" font-family="sans" font-size="10.00">train_model</text>
</g>
<!-- 1&#45;&gt;0 -->
<g id="edge1" class="edge">
<title>1&#45;&gt;0</title>
<path fill="none" stroke="grey" stroke-width="2" d="M40.25,-71.34C40.25,-64.75 40.25,-57.08 40.25,-49.67"/>
<polygon fill="grey" stroke="grey" stroke-width="2" points="43.75,-49.93 40.25,-39.93 36.75,-49.93 43.75,-49.93"/>
</g>
<!-- 2 -->
<g id="node3" class="node">
<title>2</title>
<path fill="none" stroke="#d6d856" stroke-width="2" stroke-dasharray="5,2" d="M68.5,-180C68.5,-180 12,-180 12,-180 6,-180 0,-174 0,-168 0,-168 0,-156 0,-156 0,-150 6,-144 12,-144 12,-144 68.5,-144 68.5,-144 74.5,-144 80.5,-150 80.5,-156 80.5,-156 80.5,-168 80.5,-168 80.5,-174 74.5,-180 68.5,-180"/>
<text text-anchor="middle" x="40.25" y="-158.88" font-family="sans" font-size="10.00">prepare_data</text>
</g>
<!-- 2&#45;&gt;1 -->
<g id="edge2" class="edge">
<title>2&#45;&gt;1</title>
<path fill="none" stroke="grey" stroke-width="2" d="M40.25,-143.34C40.25,-136.75 40.25,-129.08 40.25,-121.67"/>
<polygon fill="grey" stroke="grey" stroke-width="2" points="43.75,-121.93 40.25,-111.93 36.75,-121.93 43.75,-121.93"/>
</g>
<!-- 3 -->
<g id="node4" class="node">
<title>3</title>
<path fill="none" stroke="#d85656" stroke-width="2" stroke-dasharray="5,2" d="M60.25,-252C60.25,-252 20.25,-252 20.25,-252 14.25,-252 8.25,-246 8.25,-240 8.25,-240 8.25,-228 8.25,-228 8.25,-222 14.25,-216 20.25,-216 20.25,-216 60.25,-216 60.25,-216 66.25,-216 72.25,-222 72.25,-228 72.25,-228 72.25,-240 72.25,-240 72.25,-246 66.25,-252 60.25,-252"/>
<text text-anchor="middle" x="40.25" y="-230.88" font-family="sans" font-size="10.00">load_data</text>
</g>
<!-- 3&#45;&gt;2 -->
<g id="edge3" class="edge">
<title>3&#45;&gt;2</title>
<path fill="none" stroke="grey" stroke-width="2" d="M40.25,-215.34C40.25,-208.75 40.25,-201.08 40.25,-193.67"/>
<polygon fill="grey" stroke="grey" stroke-width="2" points="43.75,-193.93 40.25,-183.93 36.75,-193.93 43.75,-193.93"/>
</g>
</g>
</svg>
